<svg width="24" height="24" viewBox="0 0 24 24" fill="none" xmlns="http://www.w3.org/2000/svg">
<rect width="24" height="24" rx="12" fill="#2F88F0"/>
<path d="M20.0688 11.5433C20.0686 11.5431 20.0685 11.5429 20.0683 11.5427L16.6972 8.18787C16.4446 7.93655 16.0361 7.93748 15.7847 8.19006C15.5334 8.44261 15.5344 8.85109 15.7869 9.10245L18.0503 11.3548H4.3871C4.03078 11.3548 3.74194 11.6437 3.74194 12C3.74194 12.3563 4.03078 12.6452 4.3871 12.6452H18.0502L15.7869 14.8975C15.5344 15.1489 15.5334 15.5574 15.7848 15.8099C16.0362 16.0625 16.4447 16.0634 16.6972 15.8121L20.0683 12.4573C20.0685 12.4571 20.0686 12.4569 20.0689 12.4567C20.3216 12.2045 20.3207 11.7947 20.0688 11.5433Z" fill="white"/>
</svg>
