<svg width="60" height="60" viewBox="0 0 60 60" fill="none" xmlns="http://www.w3.org/2000/svg">
<rect width="60" height="60" rx="30" fill="#2F88F0"/>
<path d="M44.6563 29.1705C44.6559 29.1701 44.6556 29.1697 44.6552 29.1694L38.532 23.0756C38.0732 22.6191 37.3312 22.6208 36.8746 23.0796C36.4181 23.5383 36.4198 24.2803 36.8786 24.7369L40.9897 28.8281H16.1719C15.5246 28.8281 15 29.3528 15 30C15 30.6472 15.5246 31.1719 16.1719 31.1719H40.9897L36.8786 35.2631C36.4199 35.7197 36.4181 36.4617 36.8747 36.9204C37.3313 37.3792 38.0733 37.3808 38.532 36.9244L44.6553 30.8306C44.6556 30.8303 44.6559 30.8299 44.6563 30.8295C45.1153 30.3714 45.1138 29.627 44.6563 29.1705Z" fill="white"/>
</svg>
